<svg width="23" height="23" viewBox="0 0 23 23" fill="none" xmlns="http://www.w3.org/2000/svg">
<g id="apple" clip-path="url(#clip0_4347_204)">
<path id="Vector" d="M19.8936 7.70392C19.7957 7.7652 17.4655 9.05843 17.4655 11.9258C17.5754 15.1959 20.4061 16.3427 20.4547 16.3427C20.4061 16.404 20.0273 17.9049 18.9052 19.4783C18.0147 20.8336 17.0262 22.2 15.5253 22.2C14.0976 22.2 13.5851 21.2967 11.9377 21.2967C10.1685 21.2967 9.66797 22.2 8.31346 22.2C6.81252 22.2 5.75088 20.7604 4.8118 19.4178C3.59179 17.6606 2.55482 14.903 2.51821 12.2553C2.49354 10.8522 2.76253 9.47306 3.44535 8.30159C4.40911 6.66615 6.1297 5.55597 8.00866 5.51936C9.44832 5.47081 10.7296 6.50778 11.6082 6.50778C12.4502 6.50778 14.0244 5.51936 15.8054 5.51936C16.5742 5.52015 18.6243 5.75174 19.8936 7.70392ZM11.4864 5.23923C11.2302 3.95793 11.9377 2.67664 12.5966 1.85932C13.4386 0.870899 14.7685 0.200012 15.9153 0.200012C15.9885 1.4813 15.5245 2.73792 14.6952 3.65313C13.9511 4.64155 12.6699 5.38566 11.4864 5.23923Z" fill="#0D0D0D"/>
</g>
<defs>
<clipPath id="clip0_4347_204">
<rect width="22" height="22" fill="white" transform="translate(0.5 0.200012)"/>
</clipPath>
</defs>
</svg>
