<svg width="22" height="23" viewBox="0 0 22 23" fill="none" xmlns="http://www.w3.org/2000/svg">
<g id="Group 154">
<path id="Vector" d="M22.0001 11.4123C22.0001 10.5104 21.9252 9.85231 21.7631 9.16983H11.2246V13.2403H17.4105C17.2858 14.2519 16.6123 15.7753 15.1157 16.799L15.0947 16.9353L18.4268 19.4577L18.6577 19.4803C20.7778 17.5668 22.0001 14.7516 22.0001 11.4123" fill="#4285F4"/>
<path id="Vector_2" d="M11.2245 22.1372C14.255 22.1372 16.7992 21.1621 18.6576 19.4803L15.1156 16.7991C14.1678 17.445 12.8956 17.8959 11.2245 17.8959C8.25625 17.8959 5.737 15.9826 4.83896 13.3379L4.70733 13.3489L1.24258 15.9691L1.19727 16.0922C3.04305 19.6753 6.83443 22.1372 11.2245 22.1372Z" fill="#34A853"/>
<path id="Vector_3" d="M4.83895 13.338C4.602 12.6555 4.46486 11.9242 4.46486 11.1686C4.46486 10.413 4.602 9.68176 4.82649 8.99928L4.82021 8.85393L1.31203 6.19156L1.19725 6.24491C0.436513 7.73178 0 9.40147 0 11.1686C0 12.9358 0.436513 14.6054 1.19725 16.0923L4.83895 13.338" fill="#FBBC05"/>
<path id="Vector_4" d="M11.2245 4.44116C13.3322 4.44116 14.754 5.33082 15.5647 6.0743L18.7325 3.05183C16.7869 1.28468 14.2551 0.200012 11.2245 0.200012C6.83446 0.200012 3.04306 2.66182 1.19727 6.24485L4.82651 8.99922C5.73703 6.35458 8.25629 4.44116 11.2245 4.44116" fill="#EB4335"/>
</g>
</svg>
