<svg xmlns="http://www.w3.org/2000/svg" width="121" height="63" viewBox="0 0 121 63" fill="none">
    <path
        d="M120.495 31.4258H104.814H104.811C104.811 31.4258 104.809 31.4258 104.809 31.4234V31.421V16.1402V16.1378L104.811 16.1354V16.133H104.814H118.623C118.626 16.133 118.628 16.133 118.628 16.133C118.63 16.133 118.63 16.1306 118.63 16.1282V0.84741C118.63 0.84501 118.63 0.842612 118.628 0.842612C118.628 0.840212 118.626 0.84021 118.623 0.84021H82.6112C82.6112 0.84021 78.02 2.82021 73.4 2.82021C69.0008 2.82021 64.5632 0.84021 64.5632 0.84021H28.6233H28.6209V0.842612C28.6209 0.842612 28.6185 0.842607 28.6185 0.845007V0.84741V16.1282C28.6185 16.1306 28.6185 16.133 28.6161 16.133H28.6137H14.8041H14.8017C14.7993 16.133 14.7993 16.1354 14.7993 16.1354C14.7993 16.1354 14.7969 16.1354 14.7969 16.1378V16.1402V31.421V31.4234L14.7993 31.4258C14.7993 31.4258 14.7993 31.4258 14.8017 31.4258H14.8041H30.4833C30.4857 31.4258 30.4857 31.4258 30.4857 31.4282C30.4881 31.4282 30.4881 31.4306 30.4881 31.433V46.5338C30.4881 46.5362 30.4881 46.5362 30.4857 46.5362C30.4857 46.5386 30.4857 46.5386 30.4833 46.5386H25.0569H25.0545C25.0521 46.5386 25.0521 46.541 25.0521 46.541C25.0521 46.541 25.0521 46.541 25.0521 46.5434V61.8266V61.829C25.0521 61.829 25.0521 61.829 25.0545 61.8314H25.0569H61.028C61.0304 61.8314 61.0304 61.8314 61.0304 61.8314C61.0736 61.805 65.288 59.129 69.7352 59.129C74.2904 59.129 79.0424 61.8314 79.0424 61.8314H115.057C115.059 61.8314 115.059 61.829 115.059 61.829C115.062 61.829 115.062 61.829 115.062 61.8266V46.7258C115.062 46.7258 115.062 46.7234 115.064 46.7234V46.721L115.066 46.7186H120.495C120.495 46.7186 120.498 46.7186 120.498 46.7162C120.5 46.7162 120.5 46.7162 120.5 46.7138V31.433C120.5 31.4306 120.5 31.4282 120.498 31.4282C120.498 31.4258 120.495 31.4258 120.495 31.4258Z"
        fill="#33984A" />
    <path d="M82.6105 0.84021H64.5625V16.1354H82.6105V0.84021Z" fill="#FBBC05" />
    <path d="M68.7945 16.1351H50.7441V31.4255H68.7945V16.1351Z" fill="#FBBC05" />
    <path d="M66.4434 31.4304L84.4937 31.4232V46.6512L66.4434 46.6128V31.4304Z" fill="#FBBC05" />
    <path d="M60.9941 46.601L79.0469 46.6418L79.0421 61.8314H60.9941V46.601Z" fill="#FBBC05" />
    <path d="M30.3574 46.5336L115.135 46.7208" stroke="#00200E" stroke-width="0.78" stroke-linecap="round"
        stroke-linejoin="round" />
    <path d="M104.872 31.4232L68.7948 31.4256H50.7444H30.498" stroke="#00200E" stroke-width="0.78"
        stroke-linecap="round" stroke-linejoin="round" />
    <path d="M104.874 16.1351H28.5273" stroke="#00200E" stroke-width="0.78" stroke-linecap="round"
        stroke-linejoin="round" />
    <path
        d="M42.882 38.7211C38.3124 25.0915 26.4516 21.1963 26.2932 21.1435C26.2908 21.1435 26.2908 21.1411 26.2908 21.1387L25.9548 19.5907C25.9548 19.5883 25.9548 19.5883 25.9548 19.5859L26.2932 17.9587L28.2708 8.1331C28.2708 8.1331 28.2708 8.1307 28.2684 8.1307C28.2684 8.1283 28.2684 8.1283 28.2684 8.1283H28.266H15.5388C15.5364 8.1283 15.5364 8.1283 15.534 8.1283C15.534 8.1283 15.534 8.1283 15.534 8.1307V8.1331L17.8188 17.9587L18.2316 19.4803V19.4827L17.8188 21.1411C17.8188 21.1435 17.8188 21.1435 17.8188 21.1459C17.6676 21.1939 5.99162 25.0891 1.42202 38.7211C0.572422 41.2507 0.303622 43.9387 0.642022 46.5835C0.980422 49.2307 1.91402 51.7651 3.37322 53.9971C4.83242 56.2315 6.77882 58.1035 9.06842 59.4739C11.3532 60.8491 13.9236 61.6843 16.5804 61.9195C18.282 62.0707 20.1348 62.1595 22.1484 62.1595H22.1556C24.1716 62.1595 26.022 62.0707 27.7236 61.9195C30.3828 61.6843 32.9508 60.8491 35.238 59.4763C37.5252 58.1059 39.4716 56.2315 40.9308 53.9995C42.39 51.7651 43.3236 49.2307 43.662 46.5835C44.0004 43.9387 43.734 41.2507 42.882 38.7211Z"
        fill="#DAED24" />
    <path
        d="M18.4071 45.2907C18.5775 47.2371 19.3983 48.2595 21.2055 48.5355H21.2079C21.2103 48.5355 21.2103 48.5331 21.2103 48.5331V48.5307C21.2127 48.5307 21.2127 48.5283 21.2127 48.5283V43.0323L21.2103 43.0299C21.2103 43.0275 21.2103 43.0275 21.2079 43.0275C17.6871 42.07 14.1663 40.9731 14.1663 36.4971C14.1663 32.1891 17.3103 30.8547 21.2079 30.4779C21.2079 30.4779 21.2103 30.4779 21.2103 30.4755C21.2103 30.4731 21.2103 30.4731 21.2103 30.4707V27.8811C21.2103 27.8811 21.2103 27.8787 21.2127 27.8787V27.8763H21.2151C21.2175 27.8763 21.2175 27.8763 21.2175 27.8763H23.3943C23.3967 27.8763 23.3967 27.8763 23.3967 27.8763C23.3991 27.8763 23.3991 27.8787 23.3991 27.8787V27.8811V30.4707L23.4015 30.4731C23.4039 30.4755 23.4039 30.4755 23.4039 30.4755C27.1287 30.6123 30.5463 32.4579 30.2415 36.7971C30.2415 36.7995 30.2391 36.7995 30.2391 36.7995C30.2391 36.8019 30.2367 36.8019 30.2367 36.8019H25.7295C25.7295 36.8019 25.7271 36.8019 25.7271 36.7995H25.7247C25.5879 35.1963 24.8367 34.3419 23.4063 34.1019H23.4039C23.4039 34.1019 23.4039 34.1019 23.4039 34.1043C23.4015 34.1043 23.4015 34.1043 23.4015 34.1067C23.4015 34.1067 23.4015 34.1067 23.4015 34.1091V39.1587C23.4015 39.1611 23.4015 39.1611 23.4015 39.1611C23.4039 39.1611 23.4039 39.1635 23.4039 39.1635C27.0279 40.0875 30.6855 41.3859 30.6855 45.9003C30.6855 49.5267 28.0527 51.8835 23.4039 52.3995C23.4039 52.3995 23.4039 52.3995 23.4015 52.4019C23.4015 52.4019 23.4015 52.4019 23.4015 52.4043V55.1979C23.4015 55.1979 23.4015 55.2003 23.3991 55.2003C23.3991 55.2027 23.3991 55.2027 23.3991 55.2027L23.3967 55.2051H21.2175C21.2175 55.2051 21.2175 55.2051 21.2151 55.2051C21.2151 55.2051 21.2151 55.2027 21.2127 55.2027C21.2127 55.2027 21.2127 55.2027 21.2127 55.2003V55.1979V52.4043C21.2127 52.4019 21.2103 52.4019 21.2103 52.4019C21.2103 52.3995 21.2103 52.3995 21.2079 52.3995C16.2879 52.1571 13.7247 49.7331 13.6191 45.2907C13.6191 45.2907 13.6191 45.2907 13.6191 45.2883C13.6191 45.2883 13.6191 45.2883 13.6215 45.2883C13.6215 45.2883 13.6215 45.2883 13.6239 45.2883C13.6239 45.2859 13.6239 45.2859 13.6239 45.2859H18.4023C18.4047 45.2859 18.4047 45.2883 18.4047 45.2883C18.4047 45.2883 18.4071 45.2883 18.4071 45.2907ZM21.2127 34.0731C21.2127 34.0731 21.2127 34.0707 21.2103 34.0707C21.2103 34.0707 21.2103 34.0683 21.2079 34.0683H21.2055C19.7055 34.3107 18.9207 35.0619 18.9207 36.3603C18.9207 37.7259 19.7367 38.2059 21.2055 38.6499H21.2079C21.2103 38.6499 21.2103 38.6499 21.2103 38.6499V38.6476C21.2127 38.6452 21.2127 38.6451 21.2127 38.6451V34.0731ZM23.4015 43.6179V48.5619C23.4015 48.5643 23.4015 48.5643 23.4015 48.5643C23.4015 48.5667 23.4015 48.5667 23.4039 48.5667H23.4063C25.0095 48.3267 25.9671 47.5755 25.9671 45.9699C25.9671 44.4675 25.0095 44.0235 23.4063 43.6131C23.4063 43.6131 23.4063 43.6131 23.4039 43.6131H23.4015V43.6155V43.6179Z"
        fill="#1E874B" />
    <path
        d="M26.288 17.9594H17.8256C17.8208 17.9594 17.8184 17.9618 17.8184 17.9642V21.1394C17.8184 21.1418 17.8208 21.1442 17.8256 21.1442H26.288C26.2904 21.1442 26.2928 21.1418 26.2928 21.1394V17.9642C26.2928 17.9618 26.2904 17.9594 26.288 17.9594Z"
        fill="white" />
</svg>